<?xml version="1.0" encoding="utf-8"?>
<!-- Generator: Adobe Illustrator 23.0.2, SVG Export Plug-In . SVG Version: 6.00 Build 0)  -->
<svg version="1.1" id="Prise_Feuille_Image" xmlns="http://www.w3.org/2000/svg" xmlns:xlink="http://www.w3.org/1999/xlink"
	 x="0px" y="0px" viewBox="0 0 650.7 647.7" style="enable-background:new 0 0 650.7 647.7;" xml:space="preserve">
<style type="text/css">
	.st0{fill:#3AB795;}
</style>
<title>logo_UP2WIND</title>
<path class="st0" d="M219.9,338.8c-7.1,27-14.1,53.5-21.2,80c-2.4,8.9-8,13.2-17.2,13.7c-9.1,0.3-16.2,7.8-16,16.9
	c0,8.4,0,16.8,0.1,25.1c0,9.3-3.8,13.8-13.9,15.4c6,7.4,11.4,14.7,17.4,21.4c24.4,27.1,53.1,48.1,86.7,62.5
	c21.1,9,42.8,15.6,65.7,17.6c14.8,1.4,29.9,2.5,44.7,1.7c29.9-1.5,59.2-8.7,86.4-21.2c26.7-12,51-28.7,71.7-49.4
	c33.6-33.8,56-74,66.6-120.5c5.8-24.7,7.5-50.1,5-75.4c-2.8-28.2-10.2-55.7-22-81.4c-6-13.2-0.5-26.5,12.8-32.7
	c11.7-5.5,25.7-0.3,31.5,12.3c10.4,22.1,17.9,45.4,22.3,69.3c3.7,19.7,5.8,39.4,5.3,59.4c-2.6,139.1-102,257.4-238.6,284
	c-23.3,4.7-47.1,6.3-70.8,4.8c-60.1-3.8-113.8-24.6-161.1-62.3c-30.1-24.1-55.4-53.8-74.3-87.4c-1.7-3-3.9-3-6.6-3.1
	c-8.3-0.3-13.2-3.2-14.8-9.1c-0.6-2.8-1-5.6-0.9-8.4c-0.2-8.5,0.1-17-0.4-25.5c-0.4-7.5-7-13.6-14.5-14.1c-11-0.7-15.9-5-18.7-15.8
	c-6.5-25-13.1-50-19.9-75c-0.3-1.2-2.3-2.5-3.7-2.8c-2.9-0.6-5.9-0.2-8.8-0.9c-5.5-1.4-8.1-4.4-8.1-9.9c-0.1-13.6-0.2-27.1,0-40.7
	c0.1-6.1,4.6-10,10.7-10h213.8c6.3,0,10,3.5,10.1,9.8c0.1,13.7,0.1,27.4,0,41.1c0,6.1-4.2,10.3-10.3,10.4
	C226.2,338.9,223.2,338.8,219.9,338.8z"/>
<path class="st0" d="M187.6,81.5c9.1-5.6,17.3-11,25.8-15.9c28.7-16.6,58.5-31,89.8-42c20.9-7.3,42.2-13.2,64.2-16.2
	c36.6-5.1,72.6-3.6,106.6,13.1c27.7,13.5,48.1,34.7,63.6,61c17.7,30,27.7,62.7,33.8,96.8c0.2,1.2,0.6,2.4,1.2,4.6
	C491.5,123.8,404.6,81.3,303.5,74c104,14.8,191.5,61.5,265.1,137.5c-7,4.5-13.1,8.8-19.6,12.5c-21.3,12.2-43.8,21.6-68,25.7
	c-38.7,6.6-74.4-0.3-105.9-25.1c-14.2-11.2-25.3-25.3-36.7-39.2c-20-24.3-40-48.6-63.1-70.1c-17.4-16.3-37.4-27.1-61.4-30
	c-7.8-1-15.6-1.9-23.3-3C189.7,82.1,188.7,81.8,187.6,81.5z"/>
<path class="st0" d="M322,431c70.9-50.6,149.8-74.2,237.7-72.3c-2.2,9-3.9,17.3-6.4,25.5c-7,23.7-17.8,45.5-34.6,63.9
	c-17.3,19.1-38.7,30.8-64.4,34.6c-15.6,2.3-31,1.1-46.4-0.7c-12.2-1.4-24.4-2.2-36.6-3.1c-9.4-0.7-18.8-1.2-28.2-1.5
	c-22.1-0.6-44.1,0.1-63.6,12.3c-9.7,6-18.7,13.2-28.5,20.2c1.3-6.1,2.3-11.9,3.8-17.6c9.2-35.5,21.1-69.8,38.6-102.1
	c14-25.9,31.1-49.4,54.2-68.1c18.7-15.1,39.9-24.6,63.8-27.6c23.7-3,46.5,1.4,68.7,9.5c22.8,8.3,43.6,20.3,64.4,34.8
	C462.2,351.7,386.3,377.6,322,431z"/>
<path class="st0" d="M205.6,264h-35.3c-0.1-2.4-0.4-4.7-0.4-7c0-27.4,0-54.8,0.2-82.2c0.1-10.6,4.6-16.2,14.3-18.7
	c10-2.6,21.6,5.4,21.7,15.9c0.3,30.4,0,60.8,0,91.2C206.1,263.3,206,263.5,205.6,264z"/>
<path class="st0" d="M74.7,264H38.6v-22.1c0-22.4,0-44.7,0-67.1c0-10.2,4.8-16.2,14.3-18.7s21.5,5,21.6,14.9
	C75,201.8,74.7,232.7,74.7,264z"/>
</svg>
